<svg xmlns="http://www.w3.org/2000/svg" xmlns:xlink="http://www.w3.org/1999/xlink" width="558.4pt" height="168.9pt" viewBox="0 0 558.4 168.9" version="1.1">
<defs>
<clipPath id="clip1">
  <path d="M 0 0 L 558 0 L 558 168.898438 L 0 168.898438 Z M 0 0 "/>
</clipPath>
<clipPath id="clip2">
  <path d="M 0 0 L 558.398438 0 L 558.398438 168.898438 L 0 168.898438 Z M 0 0 "/>
</clipPath>
</defs>
<g id="surface1">
<g clip-path="url(#clip1)" clip-rule="nonzero">
<path style=" stroke:none;fill-rule:evenodd;fill:rgb(10.594177%,9.812927%,9.423828%);fill-opacity:1;" d="M 0.601563 82.996094 L 276.523438 0.0859375 L 557.878906 84.355469 L 275.164063 168.628906 Z M 0.601563 82.996094 "/>
</g>
<g clip-path="url(#clip2)" clip-rule="nonzero">
<path style="fill:none;stroke-width:3.342;stroke-linecap:butt;stroke-linejoin:miter;stroke:rgb(10.594177%,9.812927%,9.423828%);stroke-opacity:1;stroke-miterlimit:4;" d="M 6.015625 859.039063 L 2765.234375 1688.140625 L 5578.789063 845.445313 L 2751.640625 2.710938 Z M 6.015625 859.039063 " transform="matrix(0.1,0,0,-0.1,0,168.9)"/>
</g>
<path style="fill-rule:evenodd;fill:rgb(98.826599%,97.65625%,93.75%);fill-opacity:1;stroke-width:3.342;stroke-linecap:butt;stroke-linejoin:miter;stroke:rgb(10.594177%,9.812927%,9.423828%);stroke-opacity:1;stroke-miterlimit:4;" d="M 236.757813 857.828125 L 2752.070313 73.335938 L 5342.851563 845.601563 L 2765.273438 1617.632813 Z M 236.757813 857.828125 " transform="matrix(0.1,0,0,-0.1,0,168.9)"/>
<path style="fill-rule:evenodd;fill:rgb(10.594177%,9.812927%,9.423828%);fill-opacity:1;stroke-width:4.997;stroke-linecap:butt;stroke-linejoin:miter;stroke:rgb(98.826599%,97.65625%,93.75%);stroke-opacity:1;stroke-miterlimit:4;" d="M 1871.210938 856.070313 L 1627.109375 856.070313 L 1627.109375 726.34375 C 1627.109375 704.898438 1631.484375 690.25 1640.195313 682.515625 C 1648.867188 674.78125 1665.898438 670.640625 1691.25 670.171875 L 1691.25 642.671875 L 1474.023438 642.671875 L 1474.375 670.523438 C 1497.851563 671.226563 1513.671875 675.40625 1521.757813 683.023438 C 1529.960938 690.757813 1534.023438 705.132813 1534.023438 726.34375 L 1534.023438 1015.445313 C 1534.023438 1036.617188 1529.84375 1051.03125 1521.640625 1058.648438 C 1513.4375 1066.382813 1497.617188 1070.5625 1474.375 1071.265625 L 1474.023438 1099.117188 L 1691.25 1099.117188 L 1691.25 1071.265625 C 1665.664063 1070.796875 1648.632813 1066.734375 1639.960938 1059 C 1631.367188 1051.382813 1627.109375 1036.851563 1627.109375 1015.445313 L 1627.109375 889.859375 L 1871.210938 889.859375 L 1871.210938 1015.445313 C 1871.210938 1036.851563 1866.796875 1051.382813 1858.125 1059 C 1849.414063 1066.734375 1832.421875 1070.796875 1807.070313 1071.265625 L 1807.070313 1099.117188 L 2023.90625 1099.117188 L 2023.90625 1071.265625 C 2000.234375 1070.289063 1984.296875 1066.148438 1976.171875 1058.53125 C 1967.96875 1051.03125 1963.945313 1036.617188 1963.945313 1015.445313 L 1963.945313 726.34375 C 1963.945313 705.132813 1968.085938 690.757813 1976.289063 683.023438 C 1984.53125 675.40625 2000.46875 671.226563 2023.90625 670.523438 L 2023.90625 642.671875 L 1807.070313 642.671875 L 1807.070313 670.523438 C 1832.65625 670.992188 1849.648438 675.054688 1858.359375 682.671875 C 1866.914063 690.40625 1871.210938 704.898438 1871.210938 726.34375 Z M 2104.609375 642.671875 L 2104.609375 669.195313 C 2119.453125 670.875 2132.460938 676.226563 2143.515625 685.40625 C 2154.453125 694.546875 2163.398438 707.164063 2170.15625 723.257813 L 2285.15625 997.007813 C 2289.0625 1006.5 2292.070313 1015.328125 2293.828125 1023.296875 C 2295.742188 1031.265625 2296.679688 1039.117188 2296.679688 1046.851563 L 2338.242188 1099.117188 L 2360.859375 1099.117188 L 2511.523438 712.75 C 2517.109375 699.3125 2524.960938 689.078125 2535.078125 682.046875 C 2545.195313 675.171875 2558.554688 670.875 2575.3125 669.195313 L 2575.3125 642.671875 L 2360.859375 642.671875 L 2361.210938 669.195313 C 2381.445313 670.40625 2394.882813 672.789063 2401.679688 676.578125 C 2408.320313 680.289063 2411.796875 686.695313 2411.796875 695.757813 C 2411.796875 697.28125 2411.328125 699.78125 2410.585938 703.023438 C 2409.765625 706.34375 2408.59375 710.015625 2407.265625 714.195313 L 2375.117188 805.601563 L 2239.453125 805.601563 L 2213.007813 740.015625 C 2210.15625 732.984375 2208.125 726.226563 2206.71875 719.664063 C 2205.273438 712.984375 2204.6875 706.929688 2204.6875 701.34375 C 2204.6875 690.875 2207.773438 683.140625 2214.21875 678.257813 C 2220.625 673.375 2231.367188 670.40625 2246.484375 669.195313 L 2246.835938 642.671875 Z M 2251.71875 833.453125 L 2360.859375 833.453125 L 2308.242188 979.15625 Z M 3049.023438 776.929688 L 3077.226563 776.929688 L 3075.195313 705.40625 C 3059.375 684.078125 3036.289063 667.4375 3005.9375 655.523438 C 2975.585938 643.726563 2940.9375 637.789063 2901.914063 637.789063 C 2867.5 637.789063 2834.648438 644.078125 2803.359375 656.8125 C 2772.070313 669.429688 2743.242188 688.140625 2716.71875 712.75 C 2695.742188 732.28125 2679.804688 754.898438 2668.984375 780.601563 C 2658.046875 806.304688 2652.539063 834.039063 2652.539063 864.039063 C 2652.539063 900.09375 2659.921875 933.804688 2674.6875 965.210938 C 2689.453125 996.617188 2710.625 1023.53125 2738.359375 1046.148438 C 2761.5625 1065.171875 2787.421875 1079.585938 2815.859375 1089.351563 C 2844.414063 1099.117188 2874.648438 1104 2906.796875 1104 C 2941.171875 1104 2972.617188 1098.765625 3001.289063 1088.296875 C 3029.84375 1077.789063 3053.789063 1062.828125 3073.046875 1043.296875 L 3066.015625 963.414063 L 3045.195313 963.414063 C 3033.320313 999.234375 3015.703125 1026.734375 2992.34375 1045.914063 C 2969.023438 1065.054688 2941.40625 1074.703125 2909.53125 1074.703125 C 2862.148438 1074.703125 2824.648438 1056.617188 2797.265625 1020.445313 C 2769.804688 984.390625 2756.09375 934.742188 2756.09375 871.773438 C 2756.09375 806.929688 2769.804688 756.460938 2797.265625 720.367188 C 2824.648438 684.3125 2862.851563 666.34375 2911.679688 666.34375 C 2943.90625 666.34375 2971.40625 675.40625 2993.90625 693.609375 C 3016.523438 711.695313 3034.84375 739.429688 3049.023438 776.929688 Z M 3207.1875 642.671875 L 3207.539063 670.523438 C 3230.976563 671.226563 3246.796875 675.40625 3254.882813 683.023438 C 3263.125 690.757813 3267.148438 705.132813 3267.148438 726.226563 L 3267.148438 1015.445313 C 3267.148438 1036.617188 3263.007813 1051.03125 3254.765625 1058.648438 C 3246.5625 1066.382813 3230.742188 1070.5625 3207.539063 1071.265625 L 3207.1875 1099.117188 L 3551.367188 1099.117188 L 3577.226563 1016.148438 L 3556.640625 1005.328125 C 3538.671875 1032.085938 3522.929688 1049.703125 3509.492188 1058.414063 C 3496.054688 1066.96875 3478.789063 1071.265625 3457.851563 1071.265625 L 3389.53125 1071.265625 C 3377.265625 1071.265625 3369.296875 1069.46875 3365.585938 1066.03125 C 3362.03125 1062.554688 3360.234375 1052.320313 3360.234375 1035.328125 L 3360.234375 915.953125 C 3360.234375 909.507813 3361.679688 904.976563 3364.414063 902.59375 C 3367.265625 900.09375 3372.5 898.921875 3380.117188 898.921875 L 3419.492188 898.921875 C 3438.789063 898.921875 3453.554688 903.453125 3463.554688 912.476563 C 3473.671875 921.539063 3480.195313 936.03125 3482.929688 956.03125 L 3509.492188 956.03125 L 3509.492188 802.75 L 3482.929688 802.75 C 3479.257813 827.632813 3472.460938 845.25 3462.734375 855.601563 C 3452.96875 865.953125 3438.320313 871.070313 3418.789063 871.070313 L 3380.117188 871.070313 C 3372.03125 871.070313 3366.679688 869.625 3364.0625 866.890625 C 3361.5625 864.039063 3360.234375 856.539063 3360.234375 844.273438 L 3360.234375 718.960938 C 3360.234375 700.875 3363.4375 688.257813 3370 681.109375 C 3376.5625 674.078125 3388.203125 670.523438 3405.234375 670.523438 L 3482.226563 670.523438 C 3503.164063 670.523438 3521.875 677.789063 3538.046875 692.398438 C 3554.375 707.046875 3569.84375 730.484375 3584.492188 762.515625 L 3605.078125 762.515625 L 3587.34375 642.671875 Z M 3879.882813 725.601563 C 3879.882813 704.898438 3883.085938 690.640625 3889.609375 682.515625 C 3896.171875 674.546875 3907.460938 670.523438 3923.789063 670.523438 C 3956.40625 670.523438 3980.3125 678.492188 3995.78125 694.546875 C 4011.25 710.640625 4019.023438 735.367188 4019.023438 768.960938 C 4019.023438 800.484375 4010.3125 825.015625 3992.8125 842.398438 C 3975.429688 859.625 3951.054688 868.335938 3919.609375 868.335938 C 3905.46875 868.335938 3895.234375 865.953125 3889.140625 861.1875 C 3882.96875 856.421875 3879.882813 848.570313 3879.882813 837.632813 Z M 3879.882813 934.859375 C 3879.882813 921.1875 3882.734375 911.304688 3888.554688 905.210938 C 3894.375 899.15625 3904.023438 896.1875 3917.578125 896.1875 C 3943.671875 896.1875 3963.554688 902.945313 3977.460938 916.539063 C 3991.289063 930.210938 3998.164063 949.742188 3998.164063 975.328125 C 3998.164063 1006.03125 3991.640625 1029.703125 3978.671875 1046.265625 C 3965.546875 1062.945313 3946.875 1071.265625 3922.460938 1071.265625 C 3908.203125 1071.265625 3897.617188 1067.554688 3890.46875 1060.328125 C 3883.4375 1052.945313 3879.882813 1042.085938 3879.882813 1027.710938 Z M 3727.539063 642.671875 L 3727.890625 670.523438 C 3751.796875 671.695313 3767.734375 675.992188 3775.585938 683.375 C 3783.59375 690.875 3787.5 705.132813 3787.5 726.34375 L 3787.5 1015.445313 C 3787.5 1036.617188 3783.476563 1050.914063 3775.46875 1058.414063 C 3767.5 1065.796875 3751.5625 1070.054688 3727.890625 1071.265625 L 3727.539063 1099.117188 L 3876.054688 1099.117188 C 3913.4375 1099.117188 3942.695313 1098.023438 3963.789063 1096.03125 C 3984.84375 1093.882813 4000.78125 1090.679688 4011.757813 1086.265625 C 4035.664063 1076.265625 4053.867188 1063.0625 4066.484375 1046.617188 C 4078.984375 1030.210938 4085.3125 1011.5 4085.3125 990.328125 C 4085.3125 965.210938 4076.484375 943.414063 4058.75 924.742188 C 4041.132813 906.1875 4016.523438 893.101563 3984.960938 885.328125 C 4024.257813 878.921875 4054.960938 864.625 4077.070313 842.632813 C 4099.335938 820.71875 4110.429688 793.804688 4110.429688 761.929688 C 4110.429688 741.226563 4105.3125 722.28125 4094.921875 705.015625 C 4084.570313 687.90625 4069.726563 673.726563 4050.429688 662.554688 C 4038.28125 655.757813 4022.8125 650.757813 4003.632813 647.554688 C 3984.609375 644.3125 3960.195313 642.671875 3930.46875 642.671875 Z M 3727.539063 642.671875 " transform="matrix(0.1,0,0,-0.1,0,168.9)"/>
</g>
</svg>