<svg version="1.2" xmlns="http://www.w3.org/2000/svg" viewBox="0 0 1396 472" width="1396" height="472">
	<title>logo</title>
	<defs>
		<linearGradient id="g1" x2="1" gradientUnits="userSpaceOnUse" gradientTransform="matrix(314.6,194.664,-159.146,257.198,318.799,.217)">
			<stop offset="0" stop-color="#3bbdff"/>
			<stop offset="1" stop-color="#0055d9"/>
		</linearGradient>
		<linearGradient id="g2" x2="1" gradientUnits="userSpaceOnUse" gradientTransform="matrix(314.6,194.664,-159.146,257.198,211.157,-67.525)">
			<stop offset="0" stop-color="#ff4d00"/>
			<stop offset="1" stop-color="#ffd400"/>
		</linearGradient>
	</defs>
	<style>
		tspan { white-space:pre } 
		.s0 { fill: url(#g1) } 
		.s1 { fill: url(#g2) } 
		.t2 { font-size: 15px;text-transform: uppercase;fill: #000000;font-weight: 400;font-family: "Montserrat-Regular", "Montserrat" } 
		.t3 { font-size: 45px;text-transform: uppercase;fill: #000000;font-weight: 700;font-family: "Montserrat-Bold", "Montserrat" } 
	</style>
	<g id="OBJECTS">
		<g id="&lt;Group&gt;">
			<path id="&lt;Path&gt;" class="s0" d="m618.4 216.5l-27.9 8.2c-5.4 1.6-11.2-0.9-13.7-6l-1.2-2.4c-2-4.1-3.2-8.6-3.4-13.2-0.3-6.5 3.7-12.4 9.8-14.6l25.5-8.9c-9-8.1-21.9-11.8-35-9-5.9 1.2-11.3 3.7-15.8 7-13.6 10-29.6 16.2-46.5 16.9l-63.6 2.5c1.1 10.1 0.6 20.4-1.5 30.5q0 0.2 0 0.4h0.1c-2.2 10.3-6.2 20.4-12.1 29.9-27.7 44.7-86.3 58.6-131.1 30.9-17.6-10.9-30.4-26.7-37.8-44.5l93.3 4.3-32.5-20.1 106.2-6.8-160-9.2 27.6 17-128.3 10.4 49.1 2.3-5.6 4.5c2.9 10.5 7.1 20.6 12.4 30.3l17.6-1.8c6.4 10.3 14.4 19.9 23.9 28.2l-4.7 17.1c4.3 3.3 8.7 6.5 13.4 9.4 4.7 2.9 9.5 5.5 14.4 7.8l13.2-11.8c11.7 4.7 23.8 7.7 36 8.8l6.2 16.5c11 0.5 21.9-0.3 32.6-2.4l3.8-17.3c11.9-3 23.5-7.7 34.2-14l14.8 9.7c9-6 17.4-13 25-21.1l-7.2-16.2c3.9-4.7 7.6-9.7 10.9-15 3.3-5.4 6.1-10.9 8.6-16.5l17.7-0.8c3.8-10.3 6.3-20.8 7.7-31.4l18.7-0.7c15.4-0.6 30.7 3.6 43.4 12.5 8.7 6 20 8.6 31.5 6.2 15.1-3.2 26.5-14.3 30.3-27.6z"/>
			<path id="&lt;Path&gt;" class="s1" d="m514.9 144.6l-49-2.2 5.5-4.4c-2.9-10.5-7.1-20.7-12.4-30.3l-17.6 1.8c-6.4-10.4-14.4-19.9-23.9-28.3l4.7-17c-4.3-3.4-8.7-6.5-13.4-9.4-4.7-2.9-9.5-5.5-14.4-7.8l-13.2 11.8c-11.7-4.8-23.8-7.7-36-8.8l-6.2-16.6c-11-0.4-21.9 0.4-32.6 2.4l-3.7 17.4c-12 2.9-23.6 7.6-34.3 14l-14.8-9.8c-9 6-17.4 13.1-25 21.1l7.2 16.2c-3.9 4.7-7.6 9.7-10.9 15.1-3.3 5.3-6.1 10.8-8.6 16.4l-17.7 0.9c-3.8 10.2-6.3 20.8-7.7 31.4l-18.7 0.7c-15.4 0.6-30.7-3.7-43.4-12.5-8.7-6.1-20-8.7-31.5-6.2-15.1 3.2-26.5 14.2-30.3 27.6l27.9-8.3c5.5-1.6 11.2 0.9 13.7 6l1.2 2.4c2 4.2 3.2 8.7 3.4 13.2 0.3 6.5-3.6 12.5-9.8 14.6l-25.5 9c9 8 21.9 11.8 35 9 5.9-1.3 11.3-3.7 15.8-7.1 13.6-10 29.6-16.2 46.5-16.8l63.6-2.6c-1.1-10-0.6-20.3 1.5-30.4q0-0.2 0-0.4h-0.1c2.2-10.3 6.2-20.5 12.1-30 27.7-44.7 86.3-58.5 131.1-30.8 17.6 10.9 30.4 26.6 37.8 44.4l-93.2-4.3 32.4 20.1-106.1 6.7 159.9 9.3-27.5-17.1z"/>
		</g>
	</g>
	<g id="TEXTS">
		<text id="&amp;" style="transform: matrix(2,0,0,2,936.861,273.164)" >
			<tspan x="-5" y="0" class="t2">&amp;
</tspan>
		</text>
		<text id="Eléctricos" style="transform: matrix(2,0,0,2,953.5,236)" >
			<tspan x="-147.4" y="0" class="t3">ELÉCTRICOS
</tspan>
		</text>
		<text id="refrigeración" style="transform: matrix(2,0,0,2,952,356.563)" >
			<tspan x="-197" y="0" class="t3">REFRIGERACIÓN
</tspan>
		</text>
	</g>
</svg>